<?xml version="1.0" encoding="utf-8"?>
<!-- Generator: Adobe Illustrator 22.0.0, SVG Export Plug-In . SVG Version: 6.00 Build 0)  -->
<svg version="1.1" id="Capa_1" xmlns="http://www.w3.org/2000/svg" xmlns:xlink="http://www.w3.org/1999/xlink" x="0px" y="0px"
	 viewBox="0 0 1984.3 4733.9" style="enable-background:new 0 0 1984.3 4733.9;" xml:space="preserve">
<style type="text/css">
	.st0{opacity:0.13;}
	.st1{opacity:0.4;clip-path:url(#SVGID_2_);}
	.st2{clip-path:url(#SVGID_4_);fill:none;stroke:#FFFFFF;stroke-width:15.412;stroke-miterlimit:10;}
	.st3{opacity:0.3889;clip-path:url(#SVGID_2_);}
	.st4{clip-path:url(#SVGID_6_);fill:none;stroke:#FFFFFF;stroke-width:15.04;stroke-miterlimit:10;}
	.st5{opacity:0.3778;clip-path:url(#SVGID_2_);}
	.st6{clip-path:url(#SVGID_8_);fill:none;stroke:#FFFFFF;stroke-width:14.669;stroke-miterlimit:10;}
	.st7{opacity:0.3667;clip-path:url(#SVGID_2_);}
	.st8{clip-path:url(#SVGID_10_);fill:none;stroke:#FFFFFF;stroke-width:14.297;stroke-miterlimit:10;}
	.st9{opacity:0.3556;clip-path:url(#SVGID_2_);}
	.st10{clip-path:url(#SVGID_12_);fill:none;stroke:#FFFFFF;stroke-width:13.925;stroke-miterlimit:10;}
	.st11{opacity:0.3445;clip-path:url(#SVGID_2_);}
	.st12{clip-path:url(#SVGID_14_);fill:none;stroke:#FFFFFF;stroke-width:13.554;stroke-miterlimit:10;}
	.st13{opacity:0.3333;clip-path:url(#SVGID_2_);}
	.st14{clip-path:url(#SVGID_16_);fill:none;stroke:#FFFFFF;stroke-width:13.182;stroke-miterlimit:10;}
	.st15{opacity:0.3222;clip-path:url(#SVGID_2_);}
	.st16{clip-path:url(#SVGID_18_);fill:none;stroke:#FFFFFF;stroke-width:12.811;stroke-miterlimit:10;}
	.st17{opacity:0.3111;clip-path:url(#SVGID_2_);}
	.st18{clip-path:url(#SVGID_20_);fill:none;stroke:#FFFFFF;stroke-width:12.439;stroke-miterlimit:10;}
	.st19{opacity:0.3;clip-path:url(#SVGID_2_);}
	.st20{clip-path:url(#SVGID_22_);fill:none;stroke:#FFFFFF;stroke-width:12.067;stroke-miterlimit:10;}
	.st21{opacity:0.2889;clip-path:url(#SVGID_2_);}
	.st22{clip-path:url(#SVGID_24_);fill:none;stroke:#FFFFFF;stroke-width:11.696;stroke-miterlimit:10;}
	.st23{opacity:0.2778;clip-path:url(#SVGID_2_);}
	.st24{clip-path:url(#SVGID_26_);fill:none;stroke:#FFFFFF;stroke-width:11.324;stroke-miterlimit:10;}
	.st25{opacity:0.2667;clip-path:url(#SVGID_2_);}
	.st26{clip-path:url(#SVGID_28_);fill:none;stroke:#FFFFFF;stroke-width:10.953;stroke-miterlimit:10;}
	.st27{opacity:0.2556;clip-path:url(#SVGID_2_);}
	.st28{clip-path:url(#SVGID_30_);fill:none;stroke:#FFFFFF;stroke-width:10.581;stroke-miterlimit:10;}
	.st29{opacity:0.2444;clip-path:url(#SVGID_2_);}
	.st30{clip-path:url(#SVGID_32_);fill:none;stroke:#FFFFFF;stroke-width:10.209;stroke-miterlimit:10;}
	.st31{opacity:0.2333;clip-path:url(#SVGID_2_);}
	.st32{clip-path:url(#SVGID_34_);fill:none;stroke:#FFFFFF;stroke-width:9.838;stroke-miterlimit:10;}
	.st33{opacity:0.2222;clip-path:url(#SVGID_2_);}
	.st34{clip-path:url(#SVGID_36_);fill:none;stroke:#FFFFFF;stroke-width:9.466;stroke-miterlimit:10;}
	.st35{opacity:0.2111;clip-path:url(#SVGID_2_);}
	.st36{clip-path:url(#SVGID_38_);fill:none;stroke:#FFFFFF;stroke-width:9.095;stroke-miterlimit:10;}
	.st37{opacity:0.2;clip-path:url(#SVGID_2_);}
	.st38{clip-path:url(#SVGID_40_);fill:none;stroke:#FFFFFF;stroke-width:8.723;stroke-miterlimit:10;}
	.st39{opacity:0.1889;clip-path:url(#SVGID_2_);}
	.st40{clip-path:url(#SVGID_42_);fill:none;stroke:#FFFFFF;stroke-width:8.352;stroke-miterlimit:10;}
	.st41{opacity:0.1778;clip-path:url(#SVGID_2_);}
	.st42{clip-path:url(#SVGID_44_);fill:none;stroke:#FFFFFF;stroke-width:7.98;stroke-miterlimit:10;}
	.st43{opacity:0.1667;clip-path:url(#SVGID_2_);}
	.st44{clip-path:url(#SVGID_46_);fill:none;stroke:#FFFFFF;stroke-width:7.608;stroke-miterlimit:10;}
	.st45{opacity:0.1555;clip-path:url(#SVGID_2_);}
	.st46{clip-path:url(#SVGID_48_);fill:none;stroke:#FFFFFF;stroke-width:7.237;stroke-miterlimit:10;}
	.st47{opacity:0.1444;clip-path:url(#SVGID_2_);}
	.st48{clip-path:url(#SVGID_50_);fill:none;stroke:#FFFFFF;stroke-width:6.865;stroke-miterlimit:10;}
	.st49{opacity:0.1333;clip-path:url(#SVGID_2_);}
	.st50{clip-path:url(#SVGID_52_);fill:none;stroke:#FFFFFF;stroke-width:6.494;stroke-miterlimit:10;}
	.st51{opacity:0.1222;clip-path:url(#SVGID_2_);}
	.st52{clip-path:url(#SVGID_54_);fill:none;stroke:#FFFFFF;stroke-width:6.122;stroke-miterlimit:10;}
	.st53{opacity:0.1111;clip-path:url(#SVGID_2_);}
	.st54{clip-path:url(#SVGID_56_);fill:none;stroke:#FFFFFF;stroke-width:5.75;stroke-miterlimit:10;}
	.st55{opacity:0.1;clip-path:url(#SVGID_2_);}
	.st56{clip-path:url(#SVGID_58_);fill:none;stroke:#FFFFFF;stroke-width:5.379;stroke-miterlimit:10;}
	.st57{opacity:8.888240e-02;clip-path:url(#SVGID_2_);}
	.st58{clip-path:url(#SVGID_60_);fill:none;stroke:#FFFFFF;stroke-width:5.007;stroke-miterlimit:10;}
	.st59{opacity:7.777400e-02;clip-path:url(#SVGID_2_);}
	.st60{clip-path:url(#SVGID_62_);fill:none;stroke:#FFFFFF;stroke-width:4.636;stroke-miterlimit:10;}
	.st61{opacity:6.666560e-02;clip-path:url(#SVGID_2_);}
	.st62{clip-path:url(#SVGID_64_);fill:none;stroke:#FFFFFF;stroke-width:4.264;stroke-miterlimit:10;}
	.st63{opacity:5.555730e-02;clip-path:url(#SVGID_2_);}
	.st64{clip-path:url(#SVGID_66_);fill:none;stroke:#FFFFFF;stroke-width:3.892;stroke-miterlimit:10;}
	.st65{opacity:4.444890e-02;clip-path:url(#SVGID_2_);}
	.st66{clip-path:url(#SVGID_68_);fill:none;stroke:#FFFFFF;stroke-width:3.521;stroke-miterlimit:10;}
	.st67{opacity:3.334050e-02;clip-path:url(#SVGID_2_);}
	.st68{clip-path:url(#SVGID_70_);fill:none;stroke:#FFFFFF;stroke-width:3.149;stroke-miterlimit:10;}
	.st69{opacity:2.221680e-02;clip-path:url(#SVGID_2_);}
	.st70{clip-path:url(#SVGID_72_);fill:none;stroke:#FFFFFF;stroke-width:2.778;stroke-miterlimit:10;}
	.st71{opacity:1.110840e-02;clip-path:url(#SVGID_2_);}
	.st72{clip-path:url(#SVGID_74_);fill:none;stroke:#FFFFFF;stroke-width:2.406;stroke-miterlimit:10;}
	.st73{opacity:0;clip-path:url(#SVGID_2_);}
	.st74{clip-path:url(#SVGID_76_);fill:none;stroke:#FFFFFF;stroke-width:2.034;stroke-miterlimit:10;}
</style>
<g class="st0">
	<g>
		<defs>
			<rect id="SVGID_1_" x="-84.2" y="-26.9" width="2152.6" height="4787.7"/>
		</defs>
		<clipPath id="SVGID_2_">
			<use xlink:href="#SVGID_1_"  style="overflow:visible;"/>
		</clipPath>
		<g class="st1">
			<g>
				<defs>
					<rect id="SVGID_3_" x="-84.2" y="-26.9" width="1177.1" height="4720.7"/>
				</defs>
				<clipPath id="SVGID_4_">
					<use xlink:href="#SVGID_3_"  style="overflow:visible;"/>
				</clipPath>
				<path class="st2" d="M873.4-24.8C552.5,412.8,424.7,689.1,490,804c47.9,84.2,213.2-15.6,248.7,50.2
					c82.5,152.9-789.3,661.2-818.6,1299.7c-36.4,791.2,1245.3,1238.4,1165.8,1896.2c-36.7,303.1-345,507.2-637.3,640.4"/>
			</g>
		</g>
		<g class="st3">
			<g>
				<defs>
					<rect id="SVGID_5_" x="-54.1" y="-7.2" width="1174.1" height="4702.9"/>
				</defs>
				<clipPath id="SVGID_6_">
					<use xlink:href="#SVGID_5_"  style="overflow:visible;"/>
				</clipPath>
				<path class="st4" d="M887-5.2C571.1,423,443,694.9,507.2,808.1c47.5,84.1,216.6-17.1,254.3,49.9
					c87.2,155.3-789.3,679.9-811.7,1325.1c-27.4,788.3,1242.3,1227.3,1163.3,1876.2c-36.7,300.8-348.5,502.2-643.1,633.2"/>
			</g>
		</g>
		<g class="st5">
			<g>
				<defs>
					<rect id="SVGID_7_" x="-24.1" y="12.4" width="1171.2" height="4685.1"/>
				</defs>
				<clipPath id="SVGID_8_">
					<use xlink:href="#SVGID_7_"  style="overflow:visible;"/>
				</clipPath>
				<path class="st6" d="M900.5,14.3c-310.8,418.9-439.2,686.3-376.2,798c47,84,220-18.7,259.9,49.5
					c92,157.7-789.4,698.6-804.8,1350.5c-18.6,785.3,1239.4,1216.2,1160.9,1856.1c-36.8,298.6-352.1,497.2-648.8,626"/>
			</g>
		</g>
		<g class="st7">
			<g>
				<defs>
					<rect id="SVGID_9_" x="5.7" y="32" width="1168.5" height="4667.4"/>
				</defs>
				<clipPath id="SVGID_10_">
					<use xlink:href="#SVGID_9_"  style="overflow:visible;"/>
				</clipPath>
				<path class="st8" d="M914,33.9C608.3,443.4,479.8,706.2,541.4,816.5c46.8,83.7,223.4-20.2,265.5,49.2
					C903.7,1025.8,17.4,1582.9,9,2241.6c-9.9,782.3,1236.4,1205.2,1158.4,1836.1c-36.9,296.3-355.6,492.2-654.6,618.8"/>
			</g>
		</g>
		<g class="st9">
			<g>
				<defs>
					<rect id="SVGID_11_" x="35.5" y="51.6" width="1165.8" height="4649.6"/>
				</defs>
				<clipPath id="SVGID_12_">
					<use xlink:href="#SVGID_11_"  style="overflow:visible;"/>
				</clipPath>
				<path class="st10" d="M927.6,53.5C626.9,453.6,498.2,712,558.5,820.6c46.4,83.6,226.8-21.7,271.2,48.8
					c101.5,162.6-789.9,735.9-791,1401.3c-1.3,779.2,1233.4,1194.1,1156,1816c-37,294-359.1,487.1-660.3,611.6"/>
			</g>
		</g>
		<g class="st11">
			<g>
				<defs>
					<rect id="SVGID_13_" x="65.2" y="71.3" width="1163.2" height="4631.9"/>
				</defs>
				<clipPath id="SVGID_14_">
					<use xlink:href="#SVGID_13_"  style="overflow:visible;"/>
				</clipPath>
				<path class="st12" d="M941.1,73.1C645.5,463.8,516.6,717.7,575.7,824.8c46.1,83.5,230.2-23.3,276.8,48.5
					c106.3,165-790.2,754.5-784.1,1426.7c7.1,776.1,1230.4,1183,1153.5,1795.9c-37.1,291.7-362.7,482.1-666.1,604.4"/>
			</g>
		</g>
		<g class="st13">
			<g>
				<defs>
					<rect id="SVGID_15_" x="94.9" y="90.9" width="1160.7" height="4614.1"/>
				</defs>
				<clipPath id="SVGID_16_">
					<use xlink:href="#SVGID_15_"  style="overflow:visible;"/>
				</clipPath>
				<path class="st14" d="M954.6,92.7C664.1,474,534.9,723.4,592.8,828.9c45.7,83.3,233.7-24.8,282.4,48.1
					c111,167.4-790.7,773.1-777.2,1452.2c15.3,773,1227.4,1171.9,1151.1,1775.9c-37.2,289.5-366.2,477.1-671.8,597.1"/>
			</g>
		</g>
		<g class="st15">
			<g>
				<defs>
					<rect id="SVGID_17_" x="124.4" y="110.5" width="1158.2" height="4596.4"/>
				</defs>
				<clipPath id="SVGID_18_">
					<use xlink:href="#SVGID_17_"  style="overflow:visible;"/>
				</clipPath>
				<path class="st16" d="M968.1,112.3c-285.4,372-414.9,616.9-358.2,720.8c45.3,83.2,237.1-26.3,288,47.8
					c115.8,169.8-791.2,791.7-770.3,1477.6c23.5,769.9,1224.4,1160.8,1148.7,1755.8c-37.2,287.2-369.7,472.1-677.6,589.9"/>
			</g>
		</g>
		<g class="st17">
			<g>
				<defs>
					<rect id="SVGID_19_" x="153.8" y="130.1" width="1155.9" height="4578.6"/>
				</defs>
				<clipPath id="SVGID_20_">
					<use xlink:href="#SVGID_19_"  style="overflow:visible;"/>
				</clipPath>
				<path class="st18" d="M981.7,131.9c-280.4,362.6-410,603-354.6,705.4c44.9,83,240.5-27.9,293.6,47.4
					c120.5,172.2-791.8,810.2-763.4,1503c31.5,766.7,1221.4,1149.7,1146.2,1735.8c-37.3,284.9-373.3,467-683.3,582.7"/>
			</g>
		</g>
		<g class="st19">
			<g>
				<defs>
					<rect id="SVGID_21_" x="183.2" y="149.8" width="1153.6" height="4560.8"/>
				</defs>
				<clipPath id="SVGID_22_">
					<use xlink:href="#SVGID_21_"  style="overflow:visible;"/>
				</clipPath>
				<path class="st20" d="M995.2,151.4c-275.3,353.2-405.2,589.1-351,690c44.6,82.9,243.9-29.4,299.2,47.1
					c125.3,174.6-792.5,828.7-756.5,1528.4c39.4,763.6,1218.5,1138.6,1143.8,1715.7c-37.4,282.7-376.8,462-689.1,575.5"/>
			</g>
		</g>
		<g class="st21">
			<g>
				<defs>
					<rect id="SVGID_23_" x="212.4" y="169.4" width="1151.5" height="4543"/>
				</defs>
				<clipPath id="SVGID_24_">
					<use xlink:href="#SVGID_23_"  style="overflow:visible;"/>
				</clipPath>
				<path class="st22" d="M1008.7,171C738.5,514.8,608.3,746.3,661.3,845.6c44.2,82.8,247.4-31.1,304.8,46.7
					C1096.5,1069,172.8,1739.5,216.6,2446c47.1,760.4,1215.5,1127.5,1141.3,1695.6c-37.5,280.4-380.3,457-694.9,568.3"/>
			</g>
		</g>
		<g class="st23">
			<g>
				<defs>
					<rect id="SVGID_25_" x="241.6" y="189" width="1149.4" height="4525.3"/>
				</defs>
				<clipPath id="SVGID_26_">
					<use xlink:href="#SVGID_25_"  style="overflow:visible;"/>
				</clipPath>
				<path class="st24" d="M1022.3,190.6C757.1,525,626.7,752.1,678.4,849.7c43.8,82.6,250.9-32.6,310.4,46.4
					c135.2,179.1-794.2,865.7-742.6,1579.2c54.8,757.2,1212.5,1116.4,1138.9,1675.6c-37.6,278.1-383.8,451.9-700.6,561.1"/>
			</g>
		</g>
		<g class="st25">
			<g>
				<defs>
					<rect id="SVGID_27_" x="270.7" y="208.7" width="1147.4" height="4507.5"/>
				</defs>
				<clipPath id="SVGID_28_">
					<use xlink:href="#SVGID_27_"  style="overflow:visible;"/>
				</clipPath>
				<path class="st26" d="M1035.8,210.2C775.7,535.2,645,757.8,695.5,853.9c43.4,82.5,254.3-34.2,316.1,46
					c140,181.5-795.2,884.2-735.7,1604.6c62.3,754,1209.5,1105.3,1136.4,1655.5c-37.7,275.8-387.4,446.9-706.4,553.9"/>
			</g>
		</g>
		<g class="st27">
			<g>
				<defs>
					<rect id="SVGID_29_" x="299.7" y="228.3" width="1145.5" height="4489.8"/>
				</defs>
				<clipPath id="SVGID_30_">
					<use xlink:href="#SVGID_29_"  style="overflow:visible;"/>
				</clipPath>
				<path class="st28" d="M1049.3,229.8c-255,315.6-386,533.8-336.6,628.3c43,82.4,257.7-35.7,321.7,45.6
					c144.7,183.9-796.3,902.7-728.8,1630c69.7,750.8,1206.5,1094.2,1134,1635.5c-37.8,273.6-390.9,441.9-712.1,546.6"/>
			</g>
		</g>
		<g class="st29">
			<g>
				<defs>
					<rect id="SVGID_31_" x="328.6" y="247.9" width="1143.8" height="4472"/>
				</defs>
				<clipPath id="SVGID_32_">
					<use xlink:href="#SVGID_31_"  style="overflow:visible;"/>
				</clipPath>
				<path class="st30" d="M1062.8,249.4c-249.9,306.3-381.2,519.9-333,612.8c42.6,82.3,261.1-37.2,327.3,45.3
					c149.5,186.3-797.5,921.2-721.9,1655.4c77,747.7,1204.6,1083.2,1131.5,1615.4c-37.3,271.4-394.4,436.9-717.9,539.4"/>
			</g>
		</g>
		<g class="st31">
			<g>
				<defs>
					<rect id="SVGID_33_" x="357.4" y="267.5" width="1142.1" height="4454.2"/>
				</defs>
				<clipPath id="SVGID_34_">
					<use xlink:href="#SVGID_33_"  style="overflow:visible;"/>
				</clipPath>
				<path class="st32" d="M1076.4,269C831.5,565.8,700,775,746.9,866.4c42.2,82.1,264.3-38.6,332.9,44.9
					c153.9,189-798.8,939.7-715,1680.8c84.2,744.5,1201.7,1072.1,1129.1,1595.4c-37.3,269.1-398,431.8-723.6,532.2"/>
			</g>
		</g>
		<g class="st33">
			<g>
				<defs>
					<rect id="SVGID_35_" x="386.1" y="287.2" width="1140.5" height="4436.4"/>
				</defs>
				<clipPath id="SVGID_36_">
					<use xlink:href="#SVGID_35_"  style="overflow:visible;"/>
				</clipPath>
				<path class="st34" d="M1089.9,288.6C850.1,576,718.3,780.8,764.1,870.5c41.8,82,267.7-40.2,338.5,44.6
					c158.6,191.5-800.2,958.2-708.1,1706.2c91.2,741.3,1198.7,1061,1126.6,1575.3c-37.4,266.8-401.5,426.8-729.4,525"/>
			</g>
		</g>
		<g class="st35">
			<g>
				<defs>
					<rect id="SVGID_37_" x="414.7" y="306.8" width="1139" height="4418.7"/>
				</defs>
				<clipPath id="SVGID_38_">
					<use xlink:href="#SVGID_37_"  style="overflow:visible;"/>
				</clipPath>
				<path class="st36" d="M1103.4,308.1C868.7,586.2,736.6,786.6,781.2,874.7c41.4,81.9,271.1-41.7,344.1,44.2
					c163.4,193.9-801.6,976.7-701.2,1731.6c98.2,738.2,1195.8,1049.9,1124.2,1555.2c-37.5,264.5-405,421.8-735.2,517.8"/>
			</g>
		</g>
		<g class="st37">
			<g>
				<defs>
					<rect id="SVGID_39_" x="443.2" y="326.4" width="1137.6" height="4400.9"/>
				</defs>
				<clipPath id="SVGID_40_">
					<use xlink:href="#SVGID_39_"  style="overflow:visible;"/>
				</clipPath>
				<path class="st38" d="M1117,327.7C887.4,596.4,754.9,792.3,798.3,878.8c41,81.8,274.5-43.3,349.7,43.9
					c168.1,196.3-803.2,995.2-694.3,1757c105.1,735,1192.8,1038.8,1121.7,1535.2c-37.6,262.3-408.6,416.8-740.9,510.6"/>
			</g>
		</g>
		<g class="st39">
			<g>
				<defs>
					<rect id="SVGID_41_" x="471.7" y="346.1" width="1136.2" height="4383.1"/>
				</defs>
				<clipPath id="SVGID_42_">
					<use xlink:href="#SVGID_41_"  style="overflow:visible;"/>
				</clipPath>
				<path class="st40" d="M1130.5,347.3C906,606.6,773.2,798.1,815.4,883c40.6,81.7,278-44.8,355.3,43.5
					c172.9,198.7-804.9,1013.8-687.4,1782.4c111.9,731.9,1189.8,1027.7,1119.3,1515.1c-37.6,260-412.1,411.7-746.7,503.3"/>
			</g>
		</g>
		<g class="st41">
			<g>
				<defs>
					<rect id="SVGID_43_" x="500" y="365.7" width="1135" height="4365.4"/>
				</defs>
				<clipPath id="SVGID_44_">
					<use xlink:href="#SVGID_43_"  style="overflow:visible;"/>
				</clipPath>
				<path class="st42" d="M1144,366.9C924.6,616.8,791.5,803.8,832.6,887.2c40.2,81.6,281.4-46.3,361,43.2
					c177.6,201.1-806.7,1032.4-680.5,1807.8c118.6,728.8,1186.8,1016.6,1116.8,1495.1c-37.7,257.7-415.6,406.7-752.4,496.1"/>
			</g>
		</g>
		<g class="st43">
			<g>
				<defs>
					<rect id="SVGID_45_" x="528.3" y="385.3" width="1133.8" height="4347.6"/>
				</defs>
				<clipPath id="SVGID_46_">
					<use xlink:href="#SVGID_45_"  style="overflow:visible;"/>
				</clipPath>
				<path class="st44" d="M1157.5,386.5C943.2,627,809.8,809.6,849.7,891.3c39.8,81.4,284.8-47.9,366.6,42.8
					c182.4,203.5-808.5,1050.9-673.6,1833.2c125.2,725.7,1183.9,1005.5,1114.4,1475c-37.8,255.5-419.2,401.7-758.2,488.9"/>
			</g>
		</g>
		<g class="st45">
			<g>
				<defs>
					<rect id="SVGID_47_" x="556.5" y="405" width="1132.7" height="4329.8"/>
				</defs>
				<clipPath id="SVGID_48_">
					<use xlink:href="#SVGID_47_"  style="overflow:visible;"/>
				</clipPath>
				<path class="st46" d="M1171.1,406.1c-209.3,231.2-343,409.3-304.3,489.4c39.3,81.3,288.2-49.4,372.2,42.5
					c187.2,205.9-810.5,1069.6-666.7,1858.6c131.8,722.6,1180.9,994.4,1112,1455c-37.9,253.2-422.7,396.6-763.9,481.7"/>
			</g>
		</g>
		<g class="st47">
			<g>
				<defs>
					<rect id="SVGID_49_" x="584.6" y="424.6" width="1131.7" height="4312"/>
				</defs>
				<clipPath id="SVGID_50_">
					<use xlink:href="#SVGID_49_"  style="overflow:visible;"/>
				</clipPath>
				<path class="st48" d="M1184.6,425.7c-204.2,221.8-338.3,395.5-300.7,474c38.9,81.2,291.6-51,377.8,42.1
					c191.9,208.3-812.6,1088.2-659.7,1884c138.2,719.6,1177.8,983.3,1109.5,1434.9c-38,250.9-426.2,391.6-769.7,474.5"/>
			</g>
		</g>
		<g class="st49">
			<g>
				<defs>
					<rect id="SVGID_51_" x="612.5" y="444.2" width="1130.8" height="4294.3"/>
				</defs>
				<clipPath id="SVGID_52_">
					<use xlink:href="#SVGID_51_"  style="overflow:visible;"/>
				</clipPath>
				<path class="st50" d="M1198.1,445.2C999,657.6,864.6,826.9,901.1,903.8c38.5,81.1,295-52.5,383.4,41.8
					c196.7,210.7-814.8,1106.9-652.8,1909.4c144.6,716.6,1174.8,972.2,1107.1,1414.8c-38.1,248.6-429.8,386.6-775.5,467.3"/>
			</g>
		</g>
		<g class="st51">
			<g>
				<defs>
					<rect id="SVGID_53_" x="640.4" y="463.9" width="1130" height="4276.5"/>
				</defs>
				<clipPath id="SVGID_54_">
					<use xlink:href="#SVGID_53_"  style="overflow:visible;"/>
				</clipPath>
				<path class="st52" d="M1211.7,464.8c-194.1,203-328.8,367.9-293.5,443.1c38,81,298.4-54,389,41.4
					c201.4,213.1-817,1125.6-645.9,1934.8c150.9,713.6,1171.8,961.1,1104.6,1394.8c-38.2,246.4-433.3,381.6-781.2,460"/>
			</g>
		</g>
		<g class="st53">
			<g>
				<defs>
					<rect id="SVGID_55_" x="668.2" y="483.5" width="1129.3" height="4258.7"/>
				</defs>
				<clipPath id="SVGID_56_">
					<use xlink:href="#SVGID_55_"  style="overflow:visible;"/>
				</clipPath>
				<path class="st54" d="M1225.2,484.4c-189,193.6-324,354.1-289.9,427.7c37.6,80.9,301.8-55.6,394.6,41.1
					c206.2,215.5-819.4,1144.3-639,1960.2c157.1,710.6,1168.8,950,1102.2,1374.7c-38.3,244.1-436.8,376.5-787,452.8"/>
			</g>
		</g>
		<g class="st55">
			<g>
				<defs>
					<rect id="SVGID_57_" x="696" y="503.1" width="1128.7" height="4240.9"/>
				</defs>
				<clipPath id="SVGID_58_">
					<use xlink:href="#SVGID_57_"  style="overflow:visible;"/>
				</clipPath>
				<path class="st56" d="M1238.7,504c-183.9,184.2-319.3,340.3-286.3,412.3c37.1,80.8,305.2-57.1,400.3,40.7
					c211,218-821.9,1163.1-632.1,1985.6c163.3,707.7,1165.7,938.9,1099.7,1354.7c-38.4,241.8-440.4,371.5-792.7,445.6"/>
			</g>
		</g>
		<g class="st57">
			<g>
				<defs>
					<rect id="SVGID_59_" x="723.6" y="522.8" width="1128.1" height="4223.2"/>
				</defs>
				<clipPath id="SVGID_60_">
					<use xlink:href="#SVGID_59_"  style="overflow:visible;"/>
				</clipPath>
				<path class="st58" d="M1252.2,523.6c-178.8,174.9-314.6,326.5-282.7,396.9c36.6,80.8,308.6-58.6,405.9,40.4
					c215.7,220.4-824.5,1181.9-625.2,2011c169.4,704.8,1162.7,927.8,1097.3,1334.6c-38.5,239.5-443.9,366.5-798.5,438.4"/>
			</g>
		</g>
		<g class="st59">
			<g>
				<defs>
					<rect id="SVGID_61_" x="751.1" y="542.4" width="1127.7" height="4205.4"/>
				</defs>
				<clipPath id="SVGID_62_">
					<use xlink:href="#SVGID_61_"  style="overflow:visible;"/>
				</clipPath>
				<path class="st60" d="M1265.8,543.2C1092,708.6,955.9,855.9,986.7,924.6c36.2,80.7,312-60.2,411.5,40
					C1618.7,1187.4,571,2165.4,779.9,3001c175.4,701.9,1159.6,916.7,1094.8,1314.6c-38.6,237.3-447.4,361.5-804.2,431.2"/>
			</g>
		</g>
		<g class="st61">
			<g>
				<defs>
					<rect id="SVGID_63_" x="778.6" y="562.1" width="1127.3" height="4187.6"/>
				</defs>
				<clipPath id="SVGID_64_">
					<use xlink:href="#SVGID_63_"  style="overflow:visible;"/>
				</clipPath>
				<path class="st62" d="M1279.3,562.8c-168.7,156.1-305.2,298.9-275.5,366c35.7,80.6,315.4-61.7,417.1,39.6
					c225.2,225.2-829.9,1219.7-611.4,2061.8c181.4,699.1,1155.8,905.5,1092.4,1294.5c-39.2,234.9-451,356.4-810,424"/>
			</g>
		</g>
		<g class="st63">
			<g>
				<defs>
					<rect id="SVGID_65_" x="805.9" y="581.7" width="1127" height="4169.8"/>
				</defs>
				<clipPath id="SVGID_66_">
					<use xlink:href="#SVGID_65_"  style="overflow:visible;"/>
				</clipPath>
				<path class="st64" d="M1292.8,582.3C1129.2,729.1,992.3,867.4,1021,932.9c35.2,80.5,318.8-63.3,422.7,39.3
					c230,227.6-832.8,1238.6-604.5,2087.2c187.3,696.3,1152.8,894.4,1089.9,1274.4c-39.3,232.6-454.5,351.4-815.8,416.7"/>
			</g>
		</g>
		<g class="st65">
			<g>
				<defs>
					<rect id="SVGID_67_" x="833.2" y="601.3" width="1126.8" height="4152"/>
				</defs>
				<clipPath id="SVGID_68_">
					<use xlink:href="#SVGID_67_"  style="overflow:visible;"/>
				</clipPath>
				<path class="st66" d="M1306.4,601.9c-158.5,137.3-295.8,271.3-268.3,335.1c34.7,80.4,322.3-64.8,428.3,38.9
					c234.7,230-835.8,1257.6-597.6,2112.6C1062,3782.2,2018.7,3971.9,1956.3,4343c-39.4,230.4-458,346.4-821.5,409.5"/>
			</g>
		</g>
		<g class="st67">
			<g>
				<defs>
					<rect id="SVGID_69_" x="860.4" y="621" width="1126.7" height="4134.2"/>
				</defs>
				<clipPath id="SVGID_70_">
					<use xlink:href="#SVGID_69_"  style="overflow:visible;"/>
				</clipPath>
				<path class="st68" d="M1319.9,621.5c-153.5,127.9-291.1,257.5-264.7,319.7c34.1,80.4,325.7-66.3,433.9,38.6
					c239.5,232.4-838.8,1276.7-590.7,2138.1c199,690.8,1146.8,872.2,1085,1234.3c-39.5,228.1-461.5,341.3-827.3,402.3"/>
			</g>
		</g>
		<g class="st69">
			<g>
				<defs>
					<rect id="SVGID_71_" x="887.5" y="640.6" width="1126.7" height="4116.4"/>
				</defs>
				<clipPath id="SVGID_72_">
					<use xlink:href="#SVGID_71_"  style="overflow:visible;"/>
				</clipPath>
				<path class="st70" d="M1333.4,641.1C1185,759.7,1047,884.8,1072.3,945.4c33.6,80.3,329.1-67.9,439.5,38.2
					c244.3,234.8-842,1295.8-583.8,2163.5c204.8,688.1,1143.9,861.1,1082.6,1214.3c-39.6,225.8-465.1,336.3-833,395.1"/>
			</g>
		</g>
		<g class="st71">
			<g>
				<defs>
					<rect id="SVGID_73_" x="914.1" y="660.3" width="1127.2" height="4098.7"/>
				</defs>
				<clipPath id="SVGID_74_">
					<use xlink:href="#SVGID_73_"  style="overflow:visible;"/>
				</clipPath>
				<path class="st72" d="M1346.9,660.7c-143.3,109.2-281.9,230-257.5,288.9c32.9,80.3,332.5-69.4,445.2,37.9
					c249,237.2-846.9,1315.5-576.8,2188.9c209.2,685.9,1140.9,850,1080.1,1194.2c-39.6,223.5-468.6,331.3-838.8,387.9"/>
			</g>
		</g>
		<g class="st73">
			<g>
				<defs>
					<rect id="SVGID_75_" x="941.5" y="679.9" width="1126.9" height="4080.9"/>
				</defs>
				<clipPath id="SVGID_76_">
					<use xlink:href="#SVGID_75_"  style="overflow:visible;"/>
				</clipPath>
				<path class="st74" d="M1360.5,680.3c-138.2,99.8-277.1,216.1-253.9,273.4c32.5,80.2,335.9-71,450.8,37.5
					c253.8,239.6-848.6,1334.2-569.9,2214.3c216.2,682.9,1137.9,838.9,1077.7,1174.1c-39.7,221.3-472.1,326.3-844.5,380.7"/>
			</g>
		</g>
	</g>
</g>
</svg>
